<svg width="520" height="520" viewBox="0 0 520 520" fill="none" xmlns="http://www.w3.org/2000/svg">
<path fill-rule="evenodd" clip-rule="evenodd" d="M514.663 207.333C515.86 213.154 516.863 219.045 517.664 225C517.942 227.061 518.195 229.129 518.423 231.205L365.012 407.395L76.6421 75.6636C123.654 28.9001 188.452 0 260 0C385.55 0 490.316 88.9892 514.663 207.333ZM341.979 433.848L351.751 422.625L62.9389 90.3849C59.6853 94.1616 56.5384 98.0329 53.5028 101.994L341.979 433.848ZM47.4296 110.25L335.349 441.463L325.403 452.885L38.8383 123.23C41.5752 118.813 44.4407 114.485 47.4296 110.25ZM309.59 471.047L318.773 460.5L33.4702 132.297C31.0388 136.601 28.7264 140.981 26.5376 145.433L309.59 471.047ZM21.9157 155.358L302.959 478.662L293.276 489.783L15.7886 170.571C17.6747 165.422 19.719 160.349 21.9157 155.358ZM276.132 509.473L286.645 497.398L12.0547 181.518C10.1502 187.54 8.45904 193.658 6.99011 199.861L276.132 509.473ZM4.39884 212.123L269.339 516.901C267.235 518.58 264.778 519.61 262.241 519.991C261.495 519.997 260.748 520 260 520C259.252 520 258.505 519.997 257.759 519.991C254.378 519.484 251.138 517.823 248.687 515.008L1.57642 231.205C1.80512 229.129 2.05826 227.061 2.33555 225C2.91778 220.673 3.60645 216.38 4.39884 212.123ZM262.673 26C208.213 26.3249 158.24 45.5771 119 77.5108L120.313 79.021C159.201 47.3924 208.715 28.3248 262.673 28V26ZM373.595 351.763L374.92 350.239L329.51 298L328 299.312L373.595 351.763ZM300 286.312L365.245 361.368L366.57 359.844L301.509 285L300 286.312ZM381.987 342.109L383.312 340.585L351.509 304L350 305.312L381.987 342.109Z" fill="#EEE7D7"/>
</svg>
